<svg width="150" height="150" xmlns="http://www.w3.org/2000/svg" fill="none">

 <g>
  <title>Layer 1</title>
  <g>
   <path fill="#7CC9F2" d="m138.52884,43.65981c0.0219,-0.2988 0.0329,-0.5963 0.0331,-0.8926c-0.0011,-3.1532 -1.2318,-6.1875 -3.4416,-8.485c-2.2097,-2.2976 -5.2324,-3.6857 -8.4525,-3.8817c-1.5649,-4.0279 -4.2783,-7.53307 -7.8189,-10.10015c-3.5405,-2.56708 -7.7599,-4.08849 -12.158,-4.38398c-4.3981,-0.29548 -8.7908,0.64734 -12.6575,2.71676c-3.8667,2.06943 -7.0454,5.17872 -9.1595,8.95947c-0.6788,-0.0764 -1.3616,-0.1154 -2.045,-0.1168c-2.7344,-0.0087 -5.4366,0.5761 -7.91165,1.712c-2.47504,1.136 -4.66113,2.7949 -6.40045,4.8569c-0.28244,0.3353 -0.45787,0.7443 -0.50449,1.1761c-0.04661,0.4319 0.03764,0.8676 0.24229,1.2531c0.20465,0.3855 0.52067,0.7037 0.90881,0.9151c0.38814,0.2114 0.83128,0.3067 1.27437,0.274c0.23922,-0.0173 0.49498,-0.0161 0.73624,-0.015c5.66505,0.0115 11.20738,1.6141 15.96678,4.6169c4.7595,3.0029 8.5355,7.2794 10.8784,12.3202c0.2129,0.4586 0.5792,0.8327 1.0386,1.0606c0.4594,0.2279 0.9846,0.2962 1.489,0.1934c3.9689,-0.805 8.086,-0.5573 11.924,0.7173c3.8379,1.2746 7.257,3.5297 9.9024,6.5313c0.2128,0.2433 0.4771,0.4386 0.7746,0.5725c0.2975,0.1339 0.6211,0.2032 0.9487,0.2031l18.0262,0c0.3959,0 0.7849,-0.1012 1.1283,-0.2937c0.3434,-0.1925 0.6293,-0.4695 0.8292,-0.8034c1.2559,-2.1015 1.9184,-4.4912 1.9196,-6.9248c-0.0112,-2.4991 -0.7108,-4.9491 -2.0254,-7.0926c-1.3146,-2.1435 -3.1957,-3.9014 -5.4456,-5.089z"/>
  </g>
  <g>
   <path fill="#9CD5F2" d="m128.94798,77.03281c-0.429,-6.8563 -3.455,-13.2913 -8.461,-17.9957c-5.007,-4.7044 -11.617,-7.3247 -18.487,-7.3278c-1.2639,0 -2.5263,0.0873 -3.7782,0.2614c-2.8483,-5.4935 -7.1486,-10.10075 -12.4331,-13.3205c-5.2844,-3.21975 -11.3506,-4.92869 -17.5387,-4.9409c-0.3472,0 -0.7218,0.00225 -0.9612,0.0225c-6.8163,0.17214 -13.4188,2.41499 -18.9296,6.43036c-5.5107,4.01534 -9.6688,9.61304 -11.9212,16.04874c-4.7175,0.0876 -9.2125,2.0217 -12.5197,5.3869c-3.3072,3.3652 -5.1628,7.8932 -5.1683,12.6115c0.0004,0.6888 0.0407,1.3769 0.1209,2.061c-3.39782,1.6764 -6.26147,4.2661 -8.26989,7.4788c-2.00842,3.2127 -3.08221,6.9214 -3.10096,10.7102c-0.0079,3.5651 0.939,7.0672 2.7423,10.1425c0.19862,0.3374 0.4819,0.617 0.8218,0.8113c0.3399,0.1942 0.72464,0.2963 1.11612,0.2962l25.37973,0c0.536,0 1.0544,-0.1913 1.4619,-0.5396c0.4074,-0.3482 0.6772,-0.8304 0.7607,-1.3599c0.6493,-4.0995 2.7401,-7.8328 5.8963,-10.5285c3.1562,-2.6956 7.1707,-4.1766 11.3213,-4.1766c4.1507,0 8.1652,1.481 11.3214,4.1766c3.1562,2.6957 5.247,6.429 5.8963,10.5285c0.0835,0.5295 0.3533,1.0117 0.7607,1.3599c0.4075,0.3483 0.9259,0.5396 1.4619,0.5396l60.9745,0c0.362,0.0002 0.719,-0.0871 1.04,-0.2542c0.321,-0.1672 0.597,-0.4095 0.804,-0.7061c2.115,-3.0141 3.247,-6.6078 3.241,-10.2897c-0.015,-3.9941 -1.353,-7.8706 -3.805,-11.0236c-2.452,-3.1529 -5.879,-5.4046 -9.747,-6.4029z"/>
  </g>
  <g>
   <path fill="#B2EBF2" d="m78.28405,108.46022c-0.0415,-0.7653 -0.1227,-1.528 -0.2432,-2.2852c-0.8105,-5.0351 -3.4218,-9.62047 -7.3641,-12.93116c-3.9423,-3.31068 -8.9567,-5.1293 -14.1411,-5.12864c-5.1845,0.00066 -10.1984,1.82056 -14.1399,5.13225c-3.9414,3.31169 -6.5515,7.89775 -7.3606,12.93305c-0.1197,0.7554 -0.2005,1.5163 -0.2421,2.2797c-3.44235,1.2226 -6.41779,3.4587 -8.52114,6.4039c-2.10335,2.9452 -3.23239,6.4563 -3.23336,10.0551c0,0.5824 0.2353,1.141 0.65413,1.5528c0.41883,0.4118 0.98689,0.6432 1.5792,0.6432l62.53337,0c0.5923,0 1.1603,-0.2314 1.5792,-0.6432c0.4188,-0.4118 0.6541,-0.9704 0.6541,-1.5528c-0.001,-3.5988 -1.13,-7.1099 -3.2334,-10.0551c-2.1033,-2.9452 -5.0787,-5.1813 -8.5211,-6.4039z"/>
  </g>
 </g>
</svg>