<svg width="150" height="150" xmlns="http://www.w3.org/2000/svg" fill="none">

 <g>
  <title>Layer 1</title>
  <path id="svg_1" fill="#9CD5F2" d="m130.58,51.71318c-0.413,-6.2849 -3.327,-12.1837 -8.148,-16.4961c-4.821,-4.3123 -11.1866,-6.7143 -17.802,-6.7171c-1.2171,0 -2.4328,0.08 -3.6383,0.2397c-2.7428,-5.0358 -6.8838,-9.25911 -11.9726,-12.21054c-5.0887,-2.95144 -10.9302,-4.51796 -16.8891,-4.52916c-0.3343,0 -0.695,0.00206 -0.9256,0.02063c-6.5638,0.15779 -12.9218,2.21374 -18.2285,5.89449c-5.3066,3.68075 -9.3107,8.81188 -11.4797,14.71128c-4.5428,0.0803 -8.8713,1.8533 -12.056,4.9381c-3.1847,3.0848 -4.9715,7.2354 -4.9768,11.5605c0.0003,0.6314 0.0392,1.2622 0.1163,1.8893c-3.27192,1.5366 -6.02951,3.9106 -7.96354,6.8556c-1.93404,2.9449 -2.96805,6.3446 -2.98611,9.8176c-0.00761,3.268 0.90421,6.4783 2.64073,9.2973c0.19127,0.3093 0.46406,0.5656 0.79137,0.7437c0.32731,0.178 0.69779,0.2716 1.07478,0.2715l24.43977,0c0.5161,0 1.0153,-0.1754 1.4077,-0.4946c0.3923,-0.3192 0.6521,-0.7612 0.7325,-1.2466c0.6253,-3.7579 2.6387,-7.1801 5.678,-9.6511c3.0393,-2.471 6.9051,-3.8286 10.902,-3.8286c3.9969,0 7.8627,1.3576 10.902,3.8286c3.0393,2.471 5.0527,5.8932 5.678,9.6511c0.0804,0.4854 0.3402,0.9274 0.7325,1.2466c0.3924,0.3192 0.8916,0.4946 1.4077,0.4946l58.7169,0c0.348,0.0002 0.692,-0.0798 1.001,-0.2331c0.309,-0.1532 0.575,-0.3752 0.774,-0.6472c2.036,-2.7629 3.126,-6.0571 3.121,-9.4322c-0.014,-3.6612 -1.303,-7.2147 -3.664,-10.1049c-2.361,-2.8903 -5.662,-4.9543 -9.386,-5.8694z"/>
  <g>
   <path fill="#B3E5FC" d="m78.18468,77.56128c-0.206,-0.08577 -0.428,-0.13257 -0.6532,-0.13771c-0.2253,-0.00515 -0.44944,0.03146 -0.65963,0.10772c-0.21018,0.07627 -0.4023,0.1907 -0.56536,0.33675c-0.16307,0.14605 -0.29387,0.32086 -0.38495,0.51442l-8.45246,17.87263c-0.18415,0.3907 -0.19549,0.8341 -0.03151,1.2327c0.16398,0.3986 0.48984,0.7197 0.90591,0.8926c0.41606,0.173 0.88823,0.1836 1.31265,0.0296c0.42442,-0.154 0.76632,-0.46 0.95048,-0.8507l8.46957,-17.88872c0.1781,-0.3909 0.1842,-0.83207 0.0172,-1.22723c-0.167,-0.39515 -0.4937,-0.71224 -0.9087,-0.88206zm12.7044,0c-0.206,-0.08577 -0.428,-0.13257 -0.6532,-0.13771c-0.2253,-0.00515 -0.4494,0.03146 -0.6596,0.10772c-0.2102,0.07627 -0.4023,0.1907 -0.5654,0.33675c-0.1631,0.14605 -0.2939,0.32086 -0.3849,0.51442l-16.88781,35.77733c-0.09118,0.1935 -0.1409,0.402 -0.1463,0.6135c-0.00541,0.2115 0.0336,0.4219 0.11479,0.6193c0.0812,0.1974 0.20299,0.3778 0.35842,0.5309c0.15544,0.1532 0.34147,0.2761 0.54749,0.3617c0.20601,0.0857 0.42796,0.1324 0.65319,0.1374c0.22523,0.0051 0.44932,-0.0315 0.65947,-0.1078c0.21015,-0.0762 0.40225,-0.1906 0.56533,-0.3366c0.16309,-0.146 0.29395,-0.3207 0.38514,-0.5141l16.93918,-35.77742c0.0898,-0.19641 0.1371,-0.40765 0.1391,-0.62139c0.0019,-0.21374 -0.0415,-0.42571 -0.1276,-0.62354c-0.0862,-0.19784 -0.2135,-0.37759 -0.3744,-0.52875c-0.1609,-0.15117 -0.3523,-0.27072 -0.5629,-0.35171zm25.426,0c-0.206,-0.08577 -0.428,-0.13257 -0.6533,-0.13771c-0.2252,-0.00515 -0.4494,0.03146 -0.6596,0.10772c-0.2102,0.07627 -0.4023,0.1907 -0.5653,0.33675c-0.1631,0.14605 -0.2939,0.32086 -0.385,0.51442l-16.9563,35.77733c-0.0912,0.1935 -0.1409,0.402 -0.1463,0.6135c-0.0054,0.2115 0.0336,0.4219 0.1148,0.6193c0.0811,0.1974 0.2029,0.3778 0.3584,0.5309c0.1554,0.1532 0.3414,0.2761 0.5475,0.3617c0.206,0.0857 0.4279,0.1324 0.6532,0.1374c0.2252,0.0051 0.4493,-0.0315 0.6594,-0.1078c0.2102,-0.0762 0.4023,-0.1906 0.5654,-0.3366c0.163,-0.146 0.2939,-0.3207 0.3851,-0.5141l16.9392,-35.77742c0.1855,-0.38871 0.1995,-0.83063 0.0388,-1.22898c-0.1606,-0.39836 -0.4829,-0.72069 -0.896,-0.89641zm-12.7216,0c-0.206,-0.08577 -0.428,-0.13257 -0.6532,-0.13771c-0.2253,-0.00515 -0.4494,0.03146 -0.6596,0.10772c-0.2102,0.07627 -0.4023,0.1907 -0.5654,0.33675c-0.163,0.14605 -0.2939,0.32086 -0.3849,0.51442l-8.4696,17.87263c-0.1842,0.3907 -0.1955,0.8341 -0.0315,1.2327c0.1639,0.3986 0.4898,0.7197 0.9059,0.8926c0.416,0.173 0.8882,0.1836 1.3126,0.0296c0.4244,-0.154 0.7663,-0.46 0.9505,-0.8507l8.4696,-17.88872c0.1791,-0.38891 0.1877,-0.82844 0.0241,-1.22329c-0.1637,-0.39485 -0.4865,-0.71319 -0.8985,-0.886z"/>
  </g>
  <g>
   <path fill="#B3E5FC" d="m36.99359,100.66841c-0.20663,-0.05686 -0.42717,-0.08218 -0.649,-0.07451c-0.22184,0.00767 -0.44063,0.04817 -0.64385,0.11921c-0.20323,0.07103 -0.3869,0.17119 -0.54052,0.29475c-0.15362,0.12356 -0.27417,0.2681 -0.35477,0.42536l-7.48421,14.52214c-0.163,0.3175 -0.15354,0.6674 0.0263,0.973c0.17984,0.3055 0.51532,0.5415 0.93265,0.6561c0.41733,0.1147 0.88232,0.0985 1.29268,-0.045c0.41035,-0.1434 0.73246,-0.4023 0.89546,-0.7198l7.50036,-14.53569c0.1569,-0.31727 0.1425,-0.66519 -0.0402,-0.96786c-0.1826,-0.30266 -0.5187,-0.5355 -0.9349,-0.6477zm12.4977,-0.6612c-0.2066,-0.05686 -0.4272,-0.08218 -0.649,-0.07451c-0.2218,0.00767 -0.4406,0.04818 -0.6439,0.11921c-0.2032,0.07103 -0.3869,0.17119 -0.5405,0.29476c-0.1536,0.12356 -0.2741,0.2681 -0.3547,0.42535l-14.9501,29.06874c-0.08071,0.1572 -0.11993,0.3241 -0.11542,0.491c0.00451,0.1669 0.05267,0.3307 0.14171,0.482c0.08905,0.1513 0.21725,0.2871 0.37727,0.3997c0.16003,0.1126 0.34875,0.1997 0.55539,0.2565c0.20664,0.0567 0.42716,0.082 0.64895,0.0743c0.2218,-0.0078 0.44054,-0.0483 0.64373,-0.1193c0.20319,-0.071 0.38685,-0.1712 0.54049,-0.2947c0.15364,-0.1235 0.27426,-0.2679 0.35497,-0.4251l15.00061,-29.07149c0.0793,-0.15943 0.1159,-0.32832 0.1079,-0.49684c-0.008,-0.16851 -0.0605,-0.33327 -0.1545,-0.48466c-0.0939,-0.1514 -0.2275,-0.2864 -0.3928,-0.39713c-0.1653,-0.11073 -0.3591,-0.19498 -0.5701,-0.24783zm25.0123,-1.32328c-0.2067,-0.05686 -0.4272,-0.08218 -0.649,-0.07451c-0.2219,0.00767 -0.4407,0.04818 -0.6439,0.11921c-0.2032,0.07103 -0.3869,0.17119 -0.5405,0.29476c-0.1536,0.12356 -0.2742,0.2681 -0.3548,0.42535l-15.0175,29.07232c-0.0807,0.1572 -0.1199,0.324 -0.1154,0.491c0.0045,0.1669 0.0526,0.3307 0.1417,0.482c0.089,0.1513 0.2172,0.2871 0.3773,0.3997c0.16,0.1126 0.3487,0.1997 0.5553,0.2565c0.2067,0.0567 0.4272,0.082 0.649,0.0742c0.2218,-0.0077 0.4405,-0.0482 0.6437,-0.1192c0.2032,-0.071 0.3869,-0.1712 0.5405,-0.2947c0.1537,-0.1235 0.2743,-0.2679 0.355,-0.4251l15.0006,-29.0715c0.1645,-0.31593 0.1577,-0.66485 -0.0189,-0.97036c-0.1766,-0.30551 -0.5085,-0.54272 -0.9231,-0.65967zm-12.5146,0.66209c-0.2066,-0.05686 -0.4272,-0.08218 -0.649,-0.07451c-0.2219,0.00767 -0.4406,0.04818 -0.6439,0.11921c-0.2032,0.07103 -0.3869,0.17119 -0.5405,0.29475c-0.1536,0.12356 -0.2742,0.26811 -0.3548,0.42536l-7.501,14.52303c-0.163,0.3175 -0.1536,0.6675 0.0263,0.973c0.1798,0.3055 0.5153,0.5415 0.9326,0.6561c0.4174,0.1147 0.8823,0.0985 1.2927,-0.0449c0.4104,-0.1435 0.7325,-0.4024 0.8955,-0.7199l7.5003,-14.53569c0.1581,-0.31575 0.1462,-0.66251 -0.0332,-0.96511c-0.1794,-0.30259 -0.5117,-0.53662 -0.925,-0.65134z"/>
  </g>
  <g>
   <path fill="#B2EBF2" d="m82.80319,80.57082c-0.0403,-0.726 -0.1191,-1.4496 -0.236,-2.1679c-0.7862,-4.7769 -3.3196,-9.12716 -7.1442,-12.26806c-3.8246,-3.14091 -8.6894,-4.86627 -13.7191,-4.86564c-5.0296,0.00063 -9.8939,1.7272 -13.7177,4.86906c-3.8238,3.14186 -6.3559,7.49274 -7.1409,12.26984c-0.1161,0.7166 -0.1945,1.4385 -0.2349,2.1627c-3.33957,1.1599 -6.22619,3.2814 -8.26676,6.0756c-2.04056,2.7941 -3.1359,6.1251 -3.13684,9.5394c0,0.5526 0.22827,1.0825 0.6346,1.4732c0.40633,0.3907 0.95743,0.6102 1.53207,0.6102l60.66663,0c0.5747,0 1.1258,-0.2195 1.5321,-0.6102c0.4063,-0.3907 0.6346,-0.9206 0.6346,-1.4732c-0.0009,-3.4143 -1.0963,-6.7453 -3.1368,-9.5394c-2.0406,-2.7942 -4.9272,-4.9157 -8.2668,-6.0756z"/>
  </g>
 </g>
</svg>