<svg width="150" height="150" xmlns="http://www.w3.org/2000/svg">
 <g>
  <title>Layer 1</title>
  <g id="svg_1">
   <path id="svg_2" d="m393.1667,245.33333c0,0 0,-6.83333 6.8334,-6.83333c6.8333,0 6.8333,6.83333 6.8333,6.83333l0,6.83337c0,0 0,6.8333 -6.8333,6.8333c-6.8334,0 -6.8334,-6.8333 -6.8334,-6.8333l0,-6.83337z" fill="#FFAC33"/>
   <path id="svg_3" d="m454.667,293.1667c0,0 6.833,0 6.833,6.8333c0,6.8334 -6.833,6.8334 -6.833,6.8334l-6.834,0c0,0 -6.833,0 -6.833,-6.8334c0,-6.8333 6.833,-6.8333 6.833,-6.8333l6.834,0z" fill="#FFAC33"/>
   <path id="svg_4" d="m352.1667,293.1667c0,0 6.8333,0 6.8333,6.8333c0,6.8334 -6.8333,6.8334 -6.8333,6.8334l-6.83337,0c0,0 -6.83333,0 -6.83333,-6.8334c0,-6.8333 6.83333,-6.8333 6.83333,-6.8333l6.83337,0z" fill="#FFAC33"/>
   <path id="svg_5" d="m369.6634,263.4213c0,0 4.8312,4.8312 0,9.6623c-4.8312,4.8312 -9.6623,0 -9.6623,0l-4.8346,-4.8311c0,0 -4.8312,-4.8312 0,-9.6658c4.8346,-4.8311 9.6657,0 9.6657,0l4.8312,4.8346z" fill="#FFAC33"/>
   <path id="svg_6" d="m441.414,335.1677c0,0 4.831,4.8313 0,9.6623c-4.8315,4.831 -9.6627,0 -9.6627,0l-4.8312,-4.831c0,0 -4.8311,-4.8313 0,-9.6625c4.8312,-4.8312 9.6624,0 9.6624,0l4.8315,4.8312z" fill="#FFAC33"/>
   <path id="svg_7" d="m440.002,273.08c0,0 -4.8308,4.8312 -9.6619,0c-4.8312,-4.8312 0,-9.6623 0,-9.6623l4.8311,-4.8312c0,0 4.8308,-4.8312 9.6628,0c4.831,4.8312 0,9.6623 0,9.6623l-4.832,4.8312z" fill="#FFAC33"/>
   <path id="svg_8" d="m368.2524,344.83c0,0 -4.8312,4.831 -9.6623,0c-4.8312,-4.831 0,-9.6623 0,-9.6623l4.8311,-4.8312c0,0 4.8312,-4.8312 9.6624,0c4.8311,4.8312 0,9.6625 0,9.6625l-4.8312,4.831z" fill="#FFAC33"/>
   <path id="svg_9" d="m393.1667,347.833c0,0 0,-6.833 6.8334,-6.833c6.8333,0 6.8333,6.833 6.8333,6.833l0,6.834c0,0 0,6.833 -6.8333,6.833c-6.8334,0 -6.8334,-6.833 -6.8334,-6.833l0,-6.834z" fill="#FFAC33"/>
   <path id="svg_10" d="m434.1666,300c0,-18.8703 -15.2998,-34.1667 -34.1667,-34.1667c-18.8702,0 -34.1666,15.2964 -34.1666,34.1667c0,18.8668 15.2964,34.1666 34.1666,34.1666c18.8669,0 34.1667,-15.2998 34.1667,-34.1666z" fill="#FFAC33"/>
  </g>
  <g>
   <path fill="#FFAC33" d="m68.1667,20.33333c0,0 0,-6.83333 6.8334,-6.83333c6.8333,0 6.8333,6.83333 6.8333,6.83333l0,6.83337c0,0 0,6.8333 -6.8333,6.8333c-6.8334,0 -6.8334,-6.8333 -6.8334,-6.8333l0,-6.83337z"/>
   <path fill="#FFAC33" d="m129.667,68.1667c0,0 6.833,0 6.833,6.8333c0,6.8334 -6.833,6.8334 -6.833,6.8334l-6.834,0c0,0 -6.833,0 -6.833,-6.8334c0,-6.8333 6.833,-6.8333 6.833,-6.8333l6.834,0z"/>
   <path fill="#FFAC33" d="m27.1667,68.1667c0,0 6.8333,0 6.8333,6.8333c0,6.8334 -6.8333,6.8334 -6.8333,6.8334l-6.83337,0c0,0 -6.83333,0 -6.83333,-6.8334c0,-6.8333 6.83333,-6.8333 6.83333,-6.8333l6.83337,0z"/>
   <path fill="#FFAC33" d="m44.6634,38.4213c0,0 4.8312,4.8312 0,9.6623c-4.8312,4.8312 -9.6623,0 -9.6623,0l-4.8346,-4.8311c0,0 -4.8312,-4.8312 0,-9.6658c4.8346,-4.8311 9.6657,0 9.6657,0l4.8312,4.8346z"/>
   <path fill="#FFAC33" d="m116.414,110.1677c0,0 4.831,4.8313 0,9.6623c-4.8315,4.831 -9.6627,0 -9.6627,0l-4.8312,-4.831c0,0 -4.8311,-4.8313 0,-9.6625c4.8312,-4.8312 9.6624,0 9.6624,0l4.8315,4.8312z"/>
   <path fill="#FFAC33" d="m115.002,48.08c0,0 -4.8308,4.8312 -9.6619,0c-4.8312,-4.8312 0,-9.6623 0,-9.6623l4.8311,-4.8312c0,0 4.8308,-4.8312 9.6628,0c4.831,4.8312 0,9.6623 0,9.6623l-4.832,4.8312z"/>
   <path fill="#FFAC33" d="m43.2524,119.83c0,0 -4.8312,4.831 -9.6623,0c-4.8312,-4.831 0,-9.6623 0,-9.6623l4.8311,-4.8312c0,0 4.8312,-4.8312 9.6624,0c4.8311,4.8312 0,9.6625 0,9.6625l-4.8312,4.831z"/>
   <path fill="#FFAC33" d="m68.1667,122.833c0,0 0,-6.833 6.8334,-6.833c6.8333,0 6.8333,6.833 6.8333,6.833l0,6.834c0,0 0,6.833 -6.8333,6.833c-6.8334,0 -6.8334,-6.833 -6.8334,-6.833l0,-6.834z"/>
   <path fill="#FFAC33" d="m109.1666,75c0,-18.8703 -15.2998,-34.1667 -34.1667,-34.1667c-18.8702,0 -34.1666,15.2964 -34.1666,34.1667c0,18.8668 15.2964,34.1666 34.1666,34.1666c18.8669,0 34.1667,-15.2998 34.1667,-34.1666z"/>
  </g>
 </g>

</svg>